# xmcd CD database file
#
# Track frame offsets:
#	150
#	23513
#	47078
#	70965
#
# Disc length: 1266 seconds
#
# Revision: 1
# Processed by: cddbd v1.5.1PL2 Copyright (c) Steve Scherf et al.
# Submitted via: CDex 1.51
#
DISCID=2b04f004
DTITLE=坂本サトル - 明日の色
DYEAR=2001
DGENRE=DOMESTIC(J-POPS)
TTITLE0=明日の色
TTITLE1=明日の色 (コーラス特訓 ver.)
TTITLE2=明日の色 (Instrumental)
TTITLE3=愛の言葉 (Same Birthday ver.)
EXTD=YEAR: 2001
EXTT0=
EXTT1=
EXTT2=
EXTT3=
PLAYORDER=
